<?xml version="1.0" standalone="no"?>
<!DOCTYPE svg PUBLIC "-//W3C//DTD SVG 20010904//EN"
 "http://www.w3.org/TR/2001/REC-SVG-20010904/DTD/svg10.dtd">
<svg version="1.0" xmlns="http://www.w3.org/2000/svg"
 width="1200.000000pt" height="1200.000000pt" viewBox="0 0 1200.000000 1200.000000"
 preserveAspectRatio="xMidYMid meet">

<g transform="translate(0.000000,1200.000000) scale(0.100000,-0.100000)"
fill="#000000" stroke="none">
<path d="M8425 10896 c-41 -18 -85 -71 -86 -104 -3 -80 0 -87 101 -212 353
-439 643 -971 825 -1515 91 -274 182 -685 198 -893 6 -68 7 -68 -54 -20 -45
34 -199 112 -254 127 -394 112 -773 -24 -924 -331 -56 -113 -74 -204 -68 -343
15 -324 233 -617 513 -689 90 -23 260 -21 360 4 149 38 277 112 402 234 l63
61 -6 -40 c-43 -266 -162 -488 -383 -717 -212 -220 -466 -410 -837 -627 -143
-84 -451 -239 -561 -284 l-61 -24 -12 97 c-72 595 -472 1041 -1029 1146 -130
24 -347 15 -465 -20 -163 -49 -303 -132 -413 -247 -105 -111 -183 -249 -230
-406 -35 -117 -45 -329 -21 -445 57 -274 258 -492 556 -604 216 -81 545 -96
880 -38 86 14 349 76 385 90 17 7 18 4 12 -32 -14 -77 -77 -248 -132 -358
-142 -284 -358 -550 -674 -828 -494 -436 -1110 -768 -1767 -954 -236 -66 -642
-144 -755 -144 l-38 0 0 303 c0 167 -3 338 -6 380 l-7 75 -306 -256 c-626
-524 -1094 -926 -1150 -986 l-24 -25 24 -10 c13 -5 51 -20 84 -34 106 -44
1156 -464 1269 -507 60 -22 111 -38 114 -35 3 3 7 182 10 398 3 274 8 394 16
399 6 4 27 8 46 8 50 0 293 37 439 66 934 187 1809 650 2451 1295 393 395 641
829 715 1254 l18 100 136 55 c289 116 720 349 1006 545 436 299 707 584 866
910 150 309 185 619 105 920 -23 84 -23 92 -10 179 37 243 5 561 -97 969 -186
741 -541 1448 -1012 2016 -89 107 -138 129 -212 97z m599 -2886 c158 -40 298
-140 370 -263 34 -57 31 -81 -18 -182 -84 -176 -237 -313 -400 -360 -83 -24
-213 -17 -281 15 -104 49 -205 187 -235 319 -20 87 -8 201 30 277 83 168 311
251 534 194z m-2408 -1545 c337 -85 587 -328 687 -665 37 -124 48 -187 50
-292 l2 -93 -110 -31 c-638 -183 -1087 -160 -1330 67 -73 69 -126 162 -145
256 -18 86 -7 242 22 330 119 350 452 522 824 428z"/>
</g>
</svg>
