<?xml version="1.0" standalone="no"?>
<!DOCTYPE svg PUBLIC "-//W3C//DTD SVG 20010904//EN"
 "http://www.w3.org/TR/2001/REC-SVG-20010904/DTD/svg10.dtd">
<svg version="1.0" xmlns="http://www.w3.org/2000/svg"
 width="360.000000pt" height="419.000000pt" viewBox="0 0 360.000000 419.000000"
 preserveAspectRatio="xMidYMid meet">

<g transform="translate(0.000000,419.000000) scale(0.100000,-0.100000)"
fill="#000000" stroke="none">
<path d="M1892 2513 c-57 -20 -107 -73 -129 -137 -19 -55 -22 -166 -13 -451 5
-136 3 -154 -15 -190 -26 -52 -57 -63 -132 -47 -158 33 -488 255 -932 627
-151 127 -181 148 -181 126 0 -10 143 -134 316 -272 286 -230 517 -391 660
-460 166 -81 248 -76 294 16 24 48 24 56 20 190 -14 408 -6 470 70 539 46 41
87 51 181 43 244 -21 638 -218 1248 -625 140 -93 248 -159 253 -154 12 12
-323 241 -607 414 -522 319 -858 443 -1033 381z"/>
</g>
</svg>
